<svg stroke="#000" fill="#008efe" stroke-width="0" viewBox="0 0 512 512" xmlns="http://www.w3.org/2000/svg">
   <path d="M233.426 365.348c7.069 0 13.431 5.676 13.431 13.481 0 7.094-5.655 13.48-13.431 13.48-7.068 0-13.43-5.676-13.43-13.48 0-7.805 6.362-13.481 13.43-13.481zm207.824-82.299c-7.069 0-13.431-5.676-13.431-13.481 0-7.094 5.655-13.48 13.431-13.48 7.069 0 13.43 5.676 13.43 13.48 0 7.095-6.361 13.481-13.43 13.481zm0-54.63c-22.621 0-40.999 18.446-40.999 41.149 0 4.257.706 8.514 2.12 12.771l-135.014 72.367c-7.776-11.351-20.5-17.737-33.931-17.737-15.551 0-29.689 9.223-36.757 22.704L75.085 295.819c-12.724-7.095-22.62-27.67-21.206-47.535.706-9.933 4.24-17.737 9.189-20.575 3.534-2.128 7.069-1.419 12.017.71 32.516 17.027 138.549 73.076 142.79 75.205 7.069 2.837 10.603 4.256 22.62-1.419l217.72-113.517c3.534-1.419 7.069-4.257 7.069-9.224 0-6.385-6.362-9.223-6.362-9.223-12.724-5.676-31.81-14.899-50.189-23.413-39.585-18.446-84.826-39.731-104.618-50.373-16.966-9.223-31.103-1.42-33.224 0-89.774 45.407-213.478 106.422-220.547 110.679-12.017 7.095-19.793 21.994-20.5 40.441-1.413 29.088 13.431 59.596 34.638 70.238l128.652 66.691c2.828 19.866 20.5 35.475 40.292 35.475 22.621 0 40.293-17.738 41-40.441l141.376-76.624c7.069 5.676 16.258 8.514 25.448 8.514 22.62 0 40.999-18.447 40.999-41.15 0-23.413-18.379-41.859-40.999-41.859z"></path>
</svg>