<svg width="40" height="40" viewBox="0 0 40 40" fill="none" xmlns="http://www.w3.org/2000/svg">
<path fill-rule="evenodd" clip-rule="evenodd" d="M31.0432 0H8.96535C7.25401 0 5.8667 1.38731 5.8667 3.09865V27.3447C5.8667 28.5114 6.3926 29.616 7.29829 30.3515L18.5393 39.4801C19.3929 40.1733 20.6157 40.1733 21.4693 39.4801L32.7103 30.3515C33.616 29.616 34.1419 28.5114 34.1419 27.3447V3.09865C34.1419 1.38731 32.7546 0 31.0432 0ZM29.4939 6.97197C29.4939 5.68847 28.4534 4.64798 27.1699 4.64798H12.8387C11.5552 4.64798 10.5147 5.68847 10.5147 6.97197V24.8707C10.5147 25.5378 10.8013 26.1727 11.3017 26.6139L17.1394 31.761L17.1395 18.9318H20.5451C21.8286 18.9318 22.8691 19.9723 22.8691 21.2558L22.869 31.761L28.7069 26.6139C29.2072 26.1727 29.4939 25.5378 29.4939 24.8707V20.1816L29.4932 20.1195C29.4606 18.5908 28.2272 17.3577 26.6985 17.3255L26.6371 17.3249L26.6993 17.3242C28.2279 17.2916 29.4611 16.0582 29.4933 14.5294L29.4939 14.4681V6.97197ZM17.1395 7.86184H22.8691V12.6798C22.8691 13.9633 21.8286 15.0038 20.5451 15.0038H17.1395V7.86184Z" fill="#1273EA"/>
</svg>
